<svg width="19" height="19" viewBox="0 0 19 19" fill="none" xmlns="http://www.w3.org/2000/svg">
<g clip-path="url(#clip0_155_185)">
<path d="M10.985 8.43495H12.575C12.5937 8.43495 12.6122 8.43126 12.6295 8.4241C12.6468 8.41694 12.6625 8.40644 12.6758 8.39321C12.689 8.37998 12.6995 8.36427 12.7066 8.34698C12.7138 8.32969 12.7175 8.31116 12.7175 8.29245V6.88245C12.7175 6.86373 12.7138 6.8452 12.7066 6.82791C12.6995 6.81062 12.689 6.79491 12.6758 6.78168C12.6625 6.76845 12.6468 6.75795 12.6295 6.75079C12.6122 6.74363 12.5937 6.73994 12.575 6.73994H10.985C10.9492 6.73994 10.9149 6.75417 10.8895 6.77949C10.8642 6.8048 10.85 6.83914 10.85 6.87494V8.29994C10.85 8.37494 10.91 8.43495 10.985 8.43495ZM8.77249 4.36244H10.3625C10.399 4.36052 10.4333 4.34466 10.4584 4.31815C10.4836 4.29163 10.4975 4.25647 10.4975 4.21994V2.80244C10.4957 2.76723 10.4809 2.73393 10.4559 2.70899C10.431 2.68406 10.3977 2.66925 10.3625 2.66744H8.77249C8.75414 2.66642 8.73578 2.66916 8.71853 2.67549C8.70127 2.68181 8.68549 2.69159 8.67215 2.70423C8.65881 2.71687 8.64819 2.7321 8.64094 2.74899C8.63369 2.76588 8.62997 2.78407 8.62999 2.80244V4.22744C8.62999 4.30244 8.69749 4.36244 8.77249 4.36244ZM8.77249 6.39494H10.3625C10.3977 6.39314 10.431 6.37833 10.4559 6.3534C10.4809 6.32846 10.4957 6.29516 10.4975 6.25995V4.84244C10.4957 4.80723 10.4809 4.77393 10.4559 4.74899C10.431 4.72406 10.3977 4.70925 10.3625 4.70744H8.77249C8.75414 4.70642 8.73578 4.70916 8.71853 4.71549C8.70127 4.72181 8.68549 4.73159 8.67215 4.74423C8.65881 4.75687 8.64819 4.7721 8.64094 4.78899C8.63369 4.80588 8.62997 4.82407 8.62999 4.84244V6.25995C8.62999 6.33495 8.69749 6.39494 8.77249 6.39494ZM6.57499 6.39494H8.16499C8.20021 6.39314 8.23351 6.37833 8.25844 6.3534C8.28338 6.32846 8.29818 6.29516 8.29999 6.25995V4.84244C8.29999 4.80664 8.28577 4.7723 8.26045 4.74699C8.23514 4.72167 8.2008 4.70744 8.16499 4.70744H6.57499C6.53919 4.70744 6.50485 4.72167 6.47953 4.74699C6.45422 4.7723 6.43999 4.80664 6.43999 4.84244V6.25995C6.43999 6.33495 6.49999 6.39494 6.57499 6.39494ZM4.35499 6.39494H5.93749C5.97402 6.395 6.00918 6.38102 6.0357 6.35589C6.06221 6.33077 6.07807 6.29642 6.07999 6.25995V4.84244C6.08002 4.82407 6.0763 4.80588 6.06905 4.78899C6.0618 4.7721 6.05118 4.75687 6.03784 4.74423C6.0245 4.73159 6.00872 4.72181 5.99146 4.71549C5.97421 4.70916 5.95584 4.70642 5.93749 4.70744H4.35499C4.31846 4.70739 4.28331 4.72137 4.25679 4.7465C4.23027 4.77162 4.21442 4.80597 4.21249 4.84244V6.25995C4.21249 6.33495 4.27249 6.39494 4.35499 6.39494ZM8.77249 8.43495H10.3625C10.399 8.43302 10.4333 8.41716 10.4584 8.39065C10.4836 8.36413 10.4975 8.32897 10.4975 8.29245V6.88245C10.4975 6.84592 10.4836 6.81076 10.4584 6.78424C10.4333 6.75773 10.399 6.74187 10.3625 6.73994H8.77249C8.75414 6.73892 8.73578 6.74166 8.71853 6.74799C8.70127 6.75431 8.68549 6.76409 8.67215 6.77673C8.65881 6.78937 8.64819 6.8046 8.64094 6.82149C8.63369 6.83838 8.62997 6.85657 8.62999 6.87494V8.29994C8.62999 8.37494 8.69749 8.43495 8.77249 8.43495ZM6.57499 8.43495H8.16499C8.18337 8.43497 8.20156 8.43125 8.21845 8.424C8.23534 8.41675 8.25057 8.40613 8.26321 8.39279C8.27585 8.37945 8.28563 8.36367 8.29195 8.34641C8.29828 8.32916 8.30101 8.31079 8.29999 8.29245V6.88245C8.30101 6.8641 8.29828 6.84573 8.29195 6.82848C8.28563 6.81122 8.27585 6.79544 8.26321 6.7821C8.25057 6.76876 8.23534 6.75814 8.21845 6.75089C8.20156 6.74364 8.18337 6.73992 8.16499 6.73994H6.57499C6.53919 6.73994 6.50485 6.75417 6.47953 6.77949C6.45422 6.8048 6.43999 6.83914 6.43999 6.87494V8.29994C6.43999 8.37494 6.49999 8.43495 6.57499 8.43495ZM4.35499 8.43495H5.93749C5.95649 8.43603 5.97551 8.43309 5.99329 8.42632C6.01107 8.41954 6.02722 8.40908 6.04067 8.39563C6.05413 8.38217 6.06459 8.36602 6.07137 8.34824C6.07814 8.33046 6.08108 8.31144 6.07999 8.29245V6.88245C6.08102 6.8641 6.07828 6.84573 6.07195 6.82848C6.06563 6.81122 6.05584 6.79544 6.04321 6.7821C6.03057 6.76876 6.01534 6.75814 5.99845 6.75089C5.98156 6.74364 5.96337 6.73992 5.94499 6.73994H4.35499C4.3172 6.73994 4.28096 6.75496 4.25423 6.78168C4.22751 6.80841 4.21249 6.84465 4.21249 6.88245V8.29245C4.21249 8.36744 4.27249 8.43495 4.35499 8.43495ZM2.16499 8.43495H3.75499C3.77337 8.43497 3.79156 8.43125 3.80845 8.424C3.82534 8.41675 3.84057 8.40613 3.85321 8.39279C3.86585 8.37945 3.87563 8.36367 3.88195 8.34641C3.88828 8.32916 3.89101 8.31079 3.88999 8.29245V6.88245C3.89101 6.8641 3.88828 6.84573 3.88195 6.82848C3.87563 6.81122 3.86585 6.79544 3.85321 6.7821C3.84057 6.76876 3.82534 6.75814 3.80845 6.75089C3.79156 6.74364 3.77337 6.73992 3.75499 6.73994H2.16499C2.14664 6.73892 2.12828 6.74166 2.11103 6.74799C2.09377 6.75431 2.07799 6.76409 2.06465 6.77673C2.05131 6.78937 2.04069 6.8046 2.03344 6.82149C2.02619 6.83838 2.02247 6.85657 2.02249 6.87494V8.29994C2.02249 8.37494 2.08249 8.43495 2.16499 8.43495ZM18.32 7.54245C18.275 7.50495 17.8175 7.15995 16.8575 7.15995C16.6025 7.15995 16.3475 7.18245 16.1 7.22745C16.0335 6.83322 15.8841 6.45759 15.6617 6.12534C15.4394 5.79309 15.1491 5.51177 14.81 5.29994L14.555 5.14994L14.3825 5.39744C14.1729 5.7269 14.0207 6.08955 13.9325 6.46994C13.7525 7.19744 13.8575 7.87994 14.2325 8.46494C13.8194 8.65351 13.3737 8.76047 12.92 8.77994H1.06999C0.995497 8.77895 0.921544 8.79277 0.852431 8.82059C0.783317 8.84841 0.720419 8.88969 0.667389 8.94202C0.614359 8.99435 0.572254 9.0567 0.543518 9.12544C0.514782 9.19418 0.499987 9.26794 0.499994 9.34244C0.488276 10.3809 0.666191 11.4128 1.02499 12.3874C1.34635 13.3468 1.98013 14.1708 2.82499 14.7274C3.70999 15.2749 5.14999 15.5824 6.78499 15.5824C7.51999 15.5824 8.25499 15.5224 8.98249 15.3874C9.98935 15.1996 10.9577 14.8447 11.8475 14.3374C12.5817 13.9138 13.2427 13.3743 13.805 12.7399C14.7425 11.6749 15.305 10.4899 15.7175 9.43995H15.89C16.9175 9.43995 17.5475 9.02744 17.9 8.68995C18.125 8.46494 18.3125 8.19494 18.425 7.89494L18.5 7.68495L18.32 7.54245Z" fill="#008FE2"/>
</g>
<defs>
<clipPath id="clip0_155_185">
<rect width="18" height="18" fill="white" transform="translate(0.5 0.125)"/>
</clipPath>
</defs>
</svg>
