<svg width="19" height="18" viewBox="0 0 19 18" fill="none" xmlns="http://www.w3.org/2000/svg">
<g clip-path="url(#clip0_155_187)">
<path d="M9.44023 0.374095C9.28555 0.377974 9.13319 0.411831 8.99197 0.473708L2.9156 3.38738C2.75686 3.46528 2.61831 3.57752 2.51045 3.71558C2.40258 3.85365 2.32823 4.01393 2.29302 4.18428L0.798833 10.7089C0.763524 10.8566 0.758551 11.0098 0.784201 11.1594C0.809851 11.309 0.865614 11.4522 0.948252 11.5805C0.971305 11.615 0.996245 11.6483 1.02296 11.6801L5.23159 16.9098C5.33754 17.0451 5.473 17.1555 5.62809 17.2331C5.78319 17.3106 5.95401 17.3533 6.12811 17.358H12.8769C13.0552 17.357 13.2309 17.316 13.3906 17.2383C13.5503 17.1606 13.6897 17.0483 13.7983 16.9098L18.0069 11.6801C18.1165 11.5452 18.1936 11.3878 18.2324 11.2196C18.2712 11.0514 18.2708 10.8769 18.231 10.7089L16.7369 4.15937C16.6955 3.9912 16.6157 3.83438 16.5036 3.70068C16.3915 3.56697 16.2498 3.45986 16.0894 3.38738L10.013 0.473708C9.83368 0.393855 9.63667 0.359592 9.44023 0.374095Z" fill="#326CE5"/>
<path d="M9.51495 2.59033C9.31572 2.59033 9.1414 2.76465 9.1414 2.98878V3.0884L9.19121 3.43704L9.24101 4.10942C9.21611 4.18413 9.1663 4.25884 9.1165 4.28375V4.45807C7.96103 4.55111 6.87992 5.06508 6.07831 5.90245L5.92889 5.82774C5.87909 5.82774 5.80438 5.85265 5.72967 5.80284L5.23161 5.35458L4.98257 5.10555L4.90786 5.03084C4.83316 4.98103 4.73354 4.93123 4.65883 4.93123C4.53432 4.93123 4.4347 4.98103 4.36 5.05574C4.23548 5.23007 4.28529 5.4542 4.45961 5.60361L4.53432 5.67832L4.83316 5.85265L5.38102 6.22619C5.43083 6.276 5.45573 6.40051 5.45573 6.42542L5.58025 6.54993C4.93277 7.47135 4.65883 8.6418 4.83316 9.81225L4.68374 9.86205C4.63393 9.91186 4.58412 10.0115 4.50941 10.0364L3.86193 10.136L3.51329 10.1609L3.41368 10.1858C3.18955 10.2356 3.06503 10.4348 3.08993 10.6341C3.13974 10.8333 3.36387 10.9329 3.56309 10.908H3.588V10.8831H3.68761L4.01135 10.7586C4.23548 10.659 4.4347 10.5842 4.63393 10.5593L4.85806 10.6341L5.00748 10.6091C5.38102 11.7298 6.12812 12.6512 7.09934 13.224L7.04954 13.3983C7.07444 13.4481 7.09934 13.5228 7.07444 13.5975L6.7507 14.1952L6.55147 14.4691L6.50167 14.5688C6.40205 14.768 6.47676 15.017 6.65109 15.0917C6.85031 15.1913 7.07444 15.0917 7.14915 14.8925L7.19896 14.7929L7.32347 14.4691C7.39818 14.2201 7.47289 13.9711 7.59741 13.7968L7.74682 13.722L7.82153 13.5726C8.90089 13.9945 10.098 14.0034 11.1835 13.5975L11.2831 13.722C11.3329 13.7469 11.4076 13.7718 11.4574 13.8466L11.7064 14.4442L11.806 14.7929L11.8558 14.8925C11.9555 15.0917 12.1796 15.1664 12.3539 15.0917C12.5531 14.9921 12.6029 14.768 12.5282 14.5688L12.4784 14.4691L12.2792 14.1703C12.1298 13.9711 12.0302 13.7968 11.9555 13.5975C11.9306 13.4979 11.9555 13.4481 11.9804 13.3983L11.9306 13.2489C12.9267 12.6512 13.6738 11.7049 14.0224 10.6091L14.1718 10.6341C14.2216 10.5842 14.2715 10.5344 14.3711 10.5593C14.5703 10.5842 14.7695 10.659 15.0185 10.7337L15.3423 10.8582L15.4419 10.8831C15.666 10.9329 15.8653 10.8084 15.9151 10.6341C15.9649 10.4348 15.8154 10.2356 15.6162 10.1858L15.4917 10.1609L15.1431 10.136C14.894 10.1111 14.6948 10.0862 14.4956 10.0115C14.4209 9.98657 14.3711 9.88696 14.3462 9.86205L14.1967 9.81225C14.3485 8.66692 14.0738 7.50576 13.4247 6.54993L13.5742 6.42542C13.5742 6.35071 13.5742 6.3009 13.624 6.22619C13.7734 6.07677 13.9477 5.97716 14.1718 5.82774L14.4707 5.65342L14.5703 5.60361C14.7446 5.4542 14.7695 5.20516 14.645 5.05574C14.5205 4.90633 14.2715 4.88142 14.0971 5.03084L14.0224 5.08065L13.7734 5.35458C13.5991 5.5289 13.4496 5.67832 13.3002 5.77794C13.2255 5.82774 13.1259 5.82774 13.0761 5.80284L12.9267 5.90245C12.1547 5.08065 11.0589 4.55768 9.9134 4.45807V4.28375C9.86359 4.23394 9.78888 4.20904 9.78888 4.10942C9.76398 3.9102 9.78888 3.71097 9.81379 3.43704L9.86359 3.0884V2.98878C9.86359 2.76465 9.71417 2.59033 9.51495 2.59033ZM9.04179 5.40439L8.94218 7.32193C8.94104 7.38206 8.92318 7.44069 8.89059 7.49124C8.858 7.54179 8.81198 7.58226 8.75768 7.60812C8.70338 7.63398 8.64295 7.6442 8.58316 7.63763C8.52338 7.63107 8.46661 7.60799 8.41921 7.57096L6.85031 6.47522C7.44153 5.8847 8.21261 5.50793 9.04179 5.40439ZM9.96321 5.40439C10.785 5.5289 11.557 5.90245 12.1547 6.47522L10.5858 7.57096C10.5384 7.60799 10.4816 7.63107 10.4218 7.63763C10.362 7.6442 10.3016 7.63398 10.2473 7.60812C10.193 7.58226 10.147 7.54179 10.1144 7.49124C10.0818 7.44069 10.064 7.38206 10.0628 7.32193L9.96321 5.40439ZM6.27754 7.17251L7.72192 8.46748C7.76389 8.50608 7.79491 8.55507 7.81186 8.60951C7.82881 8.66395 7.83108 8.7219 7.81845 8.7775C7.80581 8.8331 7.77871 8.88437 7.7399 8.92614C7.70109 8.9679 7.65193 8.99868 7.59741 9.01535L5.75457 9.56322C5.65496 8.69161 5.85418 7.8698 6.27754 7.17251ZM12.7275 7.17251C13.1632 7.88025 13.3556 8.71106 13.2753 9.53831L11.4325 9.01535C11.378 8.99868 11.3288 8.9679 11.29 8.92614C11.2512 8.88437 11.2241 8.8331 11.2115 8.7775C11.1988 8.7219 11.2011 8.66395 11.218 8.60951C11.235 8.55507 11.266 8.50608 11.308 8.46748H11.2831L12.7275 7.17251ZM9.21611 8.56709H9.78888L10.1624 9.01535L10.0379 9.58812L9.51495 9.83715L8.99198 9.58812L8.84256 9.01535L9.21611 8.56709ZM11.0838 10.1111H11.1586L13.0761 10.4348C12.7773 11.2317 12.2543 11.9041 11.557 12.3524L10.8099 10.5593C10.79 10.512 10.7817 10.4607 10.7855 10.4095C10.7894 10.3584 10.8054 10.3089 10.8321 10.2651C10.8589 10.2213 10.8957 10.1845 10.9394 10.1577C10.9832 10.131 11.0327 10.115 11.0838 10.1111ZM7.89624 10.136C7.94954 10.136 8.00201 10.1491 8.049 10.1743C8.09599 10.1994 8.13605 10.2358 8.16561 10.2801C8.19518 10.3245 8.21333 10.3755 8.21847 10.4285C8.22362 10.4816 8.21558 10.535 8.19508 10.5842L7.47289 12.3524C6.8005 11.9041 6.25264 11.2566 5.9538 10.4348L7.84644 10.136H7.89624ZM9.49005 10.908C9.53985 10.8831 9.58966 10.908 9.63946 10.9329C9.71417 10.9578 9.76398 11.0076 9.78888 11.0574L10.7352 12.7508C9.94069 13.0085 9.08378 12.9998 8.29469 12.7259L9.21611 11.0574C9.29082 10.9578 9.39043 10.908 9.49005 10.908Z" fill="white" stroke="white" stroke-width="0.25"/>
</g>
<defs>
<clipPath id="clip0_155_187">
<rect width="18" height="17.482" fill="white" transform="translate(0.5 0.125)"/>
</clipPath>
</defs>
</svg>
