<svg width="19" height="20" viewBox="0 0 19 20" fill="none" xmlns="http://www.w3.org/2000/svg">
<g clip-path="url(#clip0_155_145)">
<path d="M18.493 4.75312L18.5 4.83047V8.81016C18.5 8.90859 18.4438 9.00703 18.3594 9.05625L15.0125 10.9828V14.7937C15.0125 14.8922 14.9633 14.9906 14.8719 15.0398L7.90392 19.0477L7.8547 19.0758L7.83361 19.0828C7.78439 19.0969 7.73517 19.0969 7.68595 19.0828L7.65782 19.0758L7.61564 19.0547L0.640637 15.0469C0.549231 14.9906 0.492981 14.8922 0.492981 14.7937V2.86172L0.500012 2.78437L0.514075 2.75625L0.535168 2.71406L0.549231 2.68594L0.577356 2.65078L0.605481 2.62969C0.619543 2.62969 0.626575 2.61563 0.640637 2.60859L4.12814 0.604688C4.21954 0.548438 4.33204 0.548438 4.41642 0.604688L7.90392 2.60156C7.91798 2.60156 7.92501 2.61562 7.93204 2.62266L7.9672 2.64375C7.9672 2.65781 7.98126 2.67188 7.98829 2.67891L8.00939 2.70703L8.03048 2.74922L8.03751 2.77734L8.05157 2.84766V10.3008L10.9485 8.63438V4.83047C10.9485 4.80234 10.9485 4.78125 10.9625 4.76016L10.9695 4.73203L10.9906 4.68281L11.0117 4.66172L11.0328 4.62656L11.068 4.60547L11.0961 4.57734L14.5836 2.57344C14.668 2.52422 14.7805 2.52422 14.8649 2.57344L18.3594 4.57031L18.3945 4.59844L18.4227 4.61953L18.4508 4.65469L18.4649 4.67578C18.4789 4.68984 18.4789 4.71094 18.486 4.725L18.5 4.74609L18.493 4.75312ZM17.9164 8.64141V5.33672L16.7 6.03984L15.0125 7.00312V10.3078L17.9164 8.64141ZM14.436 14.618V11.3133L12.7766 12.2625L8.05157 14.9625V18.3023L14.436 14.625V14.618ZM1.07657 3.36797V14.625L7.46798 18.3023V14.9625L4.12814 13.0711L4.10001 13.043C4.08595 13.043 4.07892 13.0359 4.07189 13.0219L4.04376 12.9938L4.02267 12.9656L4.00861 12.9305L3.99454 12.8953V12.8531L3.98048 12.818V5.03437L2.30001 4.06406L1.08361 3.36094L1.07657 3.36797ZM4.27579 1.18828L1.37189 2.86875L4.27579 4.53516L7.17267 2.86875L4.27579 1.18828ZM5.77345 11.6227L7.46095 10.6523V3.36094L6.24454 4.06406L4.55704 5.03437V12.3187L5.77345 11.6156V11.6227ZM14.7242 3.15703L11.8203 4.83047L14.7242 6.50391L17.6281 4.83047L14.7242 3.15703ZM14.436 7.00312L12.7485 6.03281L11.532 5.32969V8.63438L13.2195 9.61172L14.436 10.3148V7.01016V7.00312ZM7.75626 14.4563L12.0172 12.0305L14.1406 10.8141L11.2438 9.14062L7.90392 11.0672L4.85939 12.818L7.75626 14.4563Z" fill="#FF2D20"/>
</g>
<defs>
<clipPath id="clip0_155_145">
<rect width="18" height="18.5625" fill="white" transform="translate(0.5 0.5625)"/>
</clipPath>
</defs>
</svg>
