<svg width="19" height="19" viewBox="0 0 19 19" fill="none" xmlns="http://www.w3.org/2000/svg">
<g clip-path="url(#clip0_155_163)">
<path d="M18.4297 11.1093C18.2891 10.7578 18.0078 10.5468 17.6563 10.4765L17.0938 10.5468L16.1094 10.6875C16.9531 9.28122 17.6563 7.66403 18.0078 6.11716C18.6406 3.72653 18.3594 2.60153 17.9375 2.10935C17.4245 1.44346 16.7635 0.906181 16.0068 0.540056C15.2502 0.17393 14.4186 -0.0109799 13.5781 -2.87258e-05C12.5938 -2.87258e-05 11.6797 0.210909 11.2578 0.351534L9.92189 0.210909C9.07814 0.210909 8.23439 0.421846 7.60157 0.773409L5.98439 0.351534C4.3672 0.140596 3.03126 0.351534 2.1172 0.984346C0.9922 1.8281 0.4297 3.23435 0.500012 5.2031C0.815234 7.56141 1.47871 9.85989 2.46876 12.0234C2.96095 13.0078 3.45314 13.5703 4.08595 13.7109C4.43751 13.8515 5.00001 13.9218 5.63282 13.4297L5.98439 13.7109L6.6172 13.9218C7.39064 14.1328 8.16407 14.0625 8.79689 13.8515C8.79871 14.0859 8.79871 14.3203 8.79689 14.5547C8.79426 15.3416 8.91284 16.1242 9.14845 16.875C9.21876 17.1562 9.4297 17.6484 9.78126 18C10.2031 18.4218 10.6953 18.5625 11.1875 18.5625L11.8203 18.4922C12.5234 18.3515 13.2969 18.0703 13.8594 17.2968C14.4219 16.5234 14.6328 15.3984 14.7031 13.5703V13.4297L14.7734 13.289L14.8438 13.3593H14.9141C15.6172 13.3593 16.4609 13.2187 17.0235 12.9375C17.375 12.7968 18.711 12.0937 18.4297 11.1093Z" fill="black"/>
<path d="M17.2344 11.3204C15.125 11.7422 14.9844 11.0391 14.9844 11.0391C17.2344 7.73444 18.1484 3.586 17.3047 2.60162C15.125 -0.210878 11.3984 1.12506 11.3281 1.12506L9.92188 0.984435C8.9375 0.984435 8.23438 1.26568 7.67188 1.68756C7.67188 1.68756 0.99219 -1.12494 1.27344 5.13287C1.34375 6.46881 3.24219 15.1876 5.42188 12.586L6.96875 10.7579C7.39063 11.0391 7.8125 11.1797 8.30469 11.1094H8.375V11.461C7.8125 12.0938 7.95313 12.1641 6.82813 12.4454C5.70313 12.6563 6.33594 13.0782 6.82813 13.2188C7.32031 13.3594 8.58594 13.5001 9.35938 12.3751V12.5157C9.57031 12.6563 9.71094 13.6407 9.71094 14.5547C9.64063 15.3985 9.64063 16.0313 9.85156 16.4532C9.99219 16.9454 10.2031 18.0001 11.6797 17.7188C12.875 17.4376 13.5781 16.7344 13.6484 15.6094C13.7188 14.7657 13.8594 14.9063 13.8594 14.2032L13.9297 13.8516C14.0703 12.7266 14 12.3751 14.7734 12.5157L14.9141 12.586C15.4766 12.586 16.25 12.4454 16.6719 12.2344C17.5859 11.8126 18.1484 11.1094 17.2344 11.3204Z" fill="#336791"/>
<path d="M8.09375 5.76562H7.67188L7.60156 5.90625L7.67188 6.11718C7.74219 6.25781 7.88281 6.32812 8.02344 6.32812H8.09375C8.30469 6.32812 8.51562 6.1875 8.51562 6.04687C8.58594 5.90625 8.30469 5.76562 8.09375 5.76562ZM14.3516 5.76562C14.3516 5.625 14.0703 5.55468 13.8594 5.625C13.6484 5.625 13.4375 5.69531 13.4375 5.83593C13.5078 5.97656 13.6484 6.11718 13.8594 6.11718H13.9297L14.2109 5.97656L14.3516 5.76562Z" fill="white"/>
<path d="M17.9375 11.2499C17.8672 11.039 17.586 10.8984 17.1641 11.039C15.8985 11.2499 15.4766 11.1093 15.2656 10.9687C16.25 9.49213 17.0938 7.66401 17.5156 5.97651C17.7266 5.20307 17.8672 4.42963 17.8672 3.86713C17.8672 3.16401 17.7266 2.67182 17.5156 2.39057C17.0427 1.78261 16.4337 1.29412 15.7377 0.964391C15.0416 0.634665 14.2778 0.472909 13.5078 0.492134C12.3828 0.492134 11.3985 0.773384 11.1875 0.914009C10.836 0.773384 10.3438 0.703072 9.92189 0.703072C9.00783 0.703072 8.3047 0.914009 7.67189 1.33588C7.39064 1.19526 6.68751 0.984322 5.84376 0.843697C4.3672 0.632759 3.2422 0.773384 2.39845 1.4062C1.41408 2.10932 0.921888 3.37495 1.06251 5.13276C1.06251 5.69526 1.41408 7.5937 1.97658 9.35151C2.6797 11.6718 3.45314 12.9374 4.22658 13.2187L4.57814 13.289C4.85939 13.289 5.21095 13.1484 5.56251 12.6562L7.03908 11.1093C7.32033 11.2499 7.67189 11.3203 8.02345 11.3203V11.3906L7.88283 11.6015C7.60158 11.9531 7.53126 11.9531 6.75783 12.164C6.54689 12.164 5.91408 12.3046 5.91408 12.7265C5.91408 13.2187 6.6172 13.4296 6.68751 13.4296L7.53126 13.4999C8.16408 13.4999 8.72658 13.289 9.21876 12.9374C9.14845 14.5546 9.21876 16.1718 9.4297 16.664C9.64064 17.0859 9.9922 18.0703 11.2578 18.0703L11.8906 17.9999C13.1563 17.7187 13.7188 17.1562 13.9297 15.8906L14.3516 12.7265L15.125 12.7968C15.6875 12.7968 16.3203 12.6562 16.7422 12.4453C17.2344 12.2343 18.0781 11.7421 17.9375 11.2499ZM14.8438 5.41401L14.7735 6.11713L14.6328 6.96088L14.7031 7.94526C14.7735 8.57807 14.9141 9.2812 14.5625 9.91401L14.4219 9.63276L14.211 9.21088C13.7188 8.36713 12.6641 6.4687 13.2266 5.69526C13.3672 5.48432 13.7891 5.27338 14.8438 5.41401ZM13.5781 1.05463C15.0547 1.05463 16.25 1.61713 17.0938 2.67182C17.7266 3.51557 17.0235 7.24213 14.9844 10.4765L14.9141 10.4062C15.4063 9.49213 15.336 8.64838 15.2656 7.87495L15.1953 6.96088L15.2656 6.18745C15.3309 5.81623 15.3545 5.43889 15.336 5.06245C15.336 4.71088 14.9141 3.6562 14.0703 2.67182C13.6485 2.17963 12.9453 1.54682 12.1016 1.19526L13.5781 1.05463ZM5.21095 12.3749C4.78908 12.8671 4.50783 12.7968 4.3672 12.7265C3.8047 12.5156 3.03126 11.2499 2.46876 9.14057C1.90626 7.38276 1.5547 5.62495 1.5547 5.13276C1.48439 3.51557 1.83595 2.39057 2.6797 1.82807C4.08595 0.843697 6.33595 1.4062 7.1797 1.68745V1.75776C5.70314 3.23432 5.70314 5.76557 5.70314 5.97651V6.18745C5.77345 6.67963 5.84376 7.45307 5.70314 8.36713C5.63482 8.80432 5.67616 9.25162 5.82343 9.66889C5.9707 10.0862 6.21929 10.4603 6.54689 10.7578L5.21095 12.3749ZM6.75783 10.2656C6.33595 9.77338 6.12501 9.14057 6.19533 8.43745C6.33595 7.45307 6.26564 6.60932 6.26564 6.18745V6.04682C6.47658 5.83588 7.46095 5.27338 8.16408 5.48432C8.51564 5.55463 8.72658 5.76557 8.79689 6.11713C9.21876 8.08588 8.8672 8.92963 8.51564 9.63276L8.37501 9.98432L8.3047 10.1249L8.09376 10.8281C7.60158 10.8281 7.10939 10.6171 6.75783 10.2656ZM6.82814 12.9374L6.47658 12.7968L6.89845 12.6562C7.81251 12.4453 7.95314 12.3046 8.23439 11.9531L8.51564 11.6015C8.72658 11.3906 8.79689 11.4609 8.93751 11.5312C9.00783 11.5312 9.14845 11.6718 9.21876 11.8828L9.14845 12.164C8.51564 13.0781 7.53126 13.0781 6.82814 12.9374ZM11.75 17.5078C10.625 17.7187 10.2031 17.1562 9.92189 16.4531C9.67149 14.896 9.60072 13.3153 9.71095 11.7421C9.57033 11.3906 9.35939 11.1093 9.14845 11.039C9.00783 10.9687 8.79689 10.8984 8.58595 10.9687L8.79689 10.2656L8.8672 10.1953L9.00783 9.8437C9.35939 9.14057 9.78126 8.1562 9.28908 6.04682C9.14845 5.20307 8.51564 4.85151 7.67189 4.92182C7.17523 4.9914 6.69728 5.15869 6.26564 5.41401C6.33595 4.57026 6.6172 3.0937 7.53126 2.10932C8.16408 1.54682 8.93751 1.19526 9.92189 1.26557C11.8203 1.26557 13.0156 2.24995 13.7188 3.0937C14.2813 3.79682 14.6328 4.49995 14.7735 4.85151C13.7891 4.7812 13.1563 4.92182 12.8047 5.41401C12.1016 6.4687 13.2266 8.50776 13.7188 9.42182L13.9297 9.8437L14.4922 10.7578L14.6328 10.8984C14.3516 11.039 13.8594 11.1796 13.8594 12.164L13.4375 15.7499C13.2266 16.8749 12.875 17.2265 11.75 17.5078ZM16.5313 12.0234C16.25 12.164 15.7578 12.2343 15.2656 12.2343C14.7031 12.3046 14.4922 12.2343 14.4219 12.164C14.3516 11.5312 14.6328 11.4609 14.8438 11.3906H14.9844L15.0547 11.4609C15.4766 11.7421 16.1797 11.7421 17.2344 11.5312H17.3047L16.5313 12.0234Z" fill="white"/>
</g>
<defs>
<clipPath id="clip0_155_163">
<rect width="18" height="18.5625" fill="white" transform="translate(0.5)"/>
</clipPath>
</defs>
</svg>
