<svg width="21" height="20" viewBox="0 0 21 20" fill="none" xmlns="http://www.w3.org/2000/svg">
<g clip-path="url(#clip0_155_136)">
<path d="M16.8531 0.945048C16.6012 1.54899 16.2787 2.12099 15.8924 2.6491C15.0489 1.80209 14.0454 1.13121 12.9403 0.675465C11.8353 0.219721 10.6506 -0.0117929 9.45526 -0.00561692C8.25991 0.000559099 7.07771 0.244302 5.9774 0.71144C4.87709 1.17858 3.88063 1.85979 3.04594 2.71547C2.21125 3.57115 1.55499 4.58423 1.11531 5.6958C0.675642 6.80737 0.46133 7.99525 0.484838 9.19039C0.508345 10.3855 0.769204 11.5641 1.25225 12.6575C1.73529 13.7509 2.43088 14.7374 3.29857 15.5596L3.63185 15.8538C4.90368 16.9254 6.44716 17.6244 8.09155 17.8733C9.73593 18.1222 11.4171 17.9113 12.9491 17.264C14.4811 16.6168 15.8042 15.5583 16.772 14.2058C17.7398 12.8533 18.3145 11.2594 18.4327 9.60046C18.6786 7.30461 18.0044 4.39895 16.8534 0.945329L16.8531 0.945048ZM4.58139 15.6118C4.48542 15.7304 4.35643 15.8179 4.21075 15.8631C4.06507 15.9084 3.90924 15.9094 3.76297 15.8661C3.6167 15.8228 3.48658 15.737 3.38905 15.6197C3.29153 15.5024 3.23099 15.3588 3.2151 15.2071C3.19921 15.0554 3.22867 14.9023 3.29977 14.7674C3.37087 14.6324 3.48041 14.5216 3.61452 14.4489C3.74863 14.3762 3.9013 14.3449 4.0532 14.359C4.2051 14.373 4.3494 14.4319 4.46786 14.528C4.62653 14.6567 4.72761 14.8432 4.74889 15.0464C4.77018 15.2497 4.70994 15.453 4.58139 15.6118ZM16.816 12.9113C14.5904 15.876 9.83854 14.8756 6.79182 15.0195C6.79182 15.0195 6.25172 15.0512 5.70796 15.1403C5.70796 15.1403 5.9131 15.0532 6.17528 14.954C8.3149 14.2093 9.32626 14.066 10.6259 13.3972C13.073 12.1532 15.4936 9.42877 15.9966 6.59674C15.0656 9.32114 12.2387 11.6639 9.66544 12.6154C7.90181 13.2654 4.71571 13.8985 4.71571 13.8985L4.58729 13.8297C2.41957 12.7759 2.35269 8.08104 6.29499 6.56695C8.02124 5.90208 9.67274 6.26711 11.537 5.82227C13.5276 5.34933 15.8308 3.85801 16.768 1.91173C17.8162 5.02533 19.079 9.89862 16.8146 12.9133L16.816 12.9113Z" fill="#68BD45"/>
</g>
<defs>
<clipPath id="clip0_155_136">
<rect width="20" height="20" fill="white" transform="translate(0.5)"/>
</clipPath>
</defs>
</svg>
