<svg width="18" height="16" viewBox="0 0 18 16" fill="none" xmlns="http://www.w3.org/2000/svg">
<g clip-path="url(#clip0_155_210)">
<path d="M8.69287 0.00084375C9.66572 0.0288281 10.5443 0.599906 10.9654 1.48366L12.6361 4.99816L12.6629 4.93024C12.7293 4.75507 12.7837 4.5756 12.8257 4.39305L12.849 4.28421C13.1306 2.87655 14.4988 1.96552 15.909 2.24402C16.244 2.31093 16.5625 2.44318 16.8463 2.63321C17.1302 2.82324 17.3738 3.06733 17.5632 3.35154C17.7527 3.63574 17.8843 3.95449 17.9506 4.28958C18.0168 4.62466 18.0164 4.96952 17.9494 5.30445C17.5741 7.17841 16.6068 8.91759 15.2192 10.2954L15.1753 10.3381L15.761 11.5696C16.4408 12.999 15.7364 14.7268 14.2563 15.2117L14.1895 15.2326L14.1385 15.248C13.912 15.3117 13.6779 15.3442 13.4426 15.3445C12.9508 15.3445 12.469 15.2052 12.0531 14.9426C11.6372 14.68 11.3042 14.3049 11.0928 13.8608L10.6407 12.9103L10.5266 12.9386C9.91547 13.083 9.29559 13.163 8.67544 13.1753L8.50634 13.177C7.90952 13.177 7.30287 13.1076 6.69677 12.9731L6.57724 12.9452L6.14292 13.8584C5.85008 14.4741 5.32705 14.9502 4.68654 15.1839L4.60919 15.2108C4.2756 15.3208 3.92316 15.362 3.57318 15.332C3.2232 15.302 2.88294 15.2013 2.57294 15.0361C1.33826 14.3798 0.867445 12.8434 1.46988 11.5743L2.00918 10.4402L1.96207 10.3945C1.22273 9.66516 0.636609 8.83617 0.247781 7.94503L0.195961 7.82318L0.188507 7.80342C-0.346641 6.47283 0.296015 4.95823 1.62577 4.41984C2.66878 3.99762 3.825 4.30081 4.536 5.0933L4.54936 5.10862L6.26822 1.49302C6.47199 1.05751 6.79291 0.687276 7.19507 0.423729C7.59723 0.160183 8.06478 0.0137133 8.54543 0.000703125L8.6182 0L8.69287 0.00084375Z" fill="white"/>
<path d="M6.12548 11.9563L7.66504 8.71712C6.48913 8.46737 5.30599 7.73999 4.63682 6.8551L3.02695 10.2396C3.92153 10.9985 4.99563 11.595 6.12548 11.9563Z" fill="#1A007F"/>
<path d="M12.5504 6.75806C11.777 7.70608 10.703 8.40921 9.55371 8.68314L11.0884 11.9126C12.2086 11.5343 13.2559 10.9234 14.1604 10.1403L12.5504 6.75806Z" fill="#4E000A"/>
<path d="M3.02695 10.2397L2.22201 11.932C1.81223 12.7927 2.12013 13.8523 2.96388 14.3008C3.85854 14.776 4.95928 14.4051 5.39086 13.5006L6.12548 11.9563C4.99104 11.5905 3.93863 11.0075 3.02695 10.2397Z" fill="#1A007F"/>
<path d="M15.7459 3.06321C15.5183 3.01763 15.2839 3.01734 15.0561 3.06237C14.8284 3.1074 14.6117 3.19686 14.4185 3.32564C14.2254 3.45442 14.0594 3.62 13.9303 3.81292C13.8011 4.00584 13.7112 4.22231 13.6657 4.44998C13.496 5.29865 13.0984 6.08896 12.5504 6.76059L14.1579 10.1452C15.6417 8.8578 16.7375 7.10491 17.1304 5.1434C17.3219 4.18329 16.7012 3.25228 15.7459 3.06321Z" fill="#FF9396"/>
<path d="M9.5537 8.6832C9.20945 8.76561 8.85789 8.80927 8.50633 8.80927C8.23239 8.80927 7.94875 8.77777 7.66504 8.71716C6.48913 8.46741 5.30599 7.74003 4.63682 6.85514C4.46948 6.6345 4.33378 6.40416 4.2392 6.16896C3.87309 5.26461 2.84266 4.82825 1.9383 5.1919C1.03394 5.55802 0.59765 6.58845 0.961236 7.49274C1.3758 8.52071 2.10803 9.46388 3.02695 10.2397C3.93774 11.0075 4.98934 11.5905 6.12302 11.9563C6.90131 12.206 7.70863 12.3442 8.50394 12.3442C9.38643 12.3442 10.2568 12.1914 11.086 11.9127L9.5537 8.6832Z" fill="#002DC8"/>
<path d="M15.0064 11.9247L14.1579 10.1403L12.5504 6.75804L12.548 6.7605C12.548 6.7605 12.548 6.75804 12.5504 6.75804L10.2132 1.84108C10.0698 1.53942 9.84376 1.28458 9.5614 1.10609C9.27905 0.927589 8.9519 0.832737 8.61785 0.83252C7.93653 0.83252 7.31588 1.22529 7.02253 1.84115L4.63922 6.85507C5.30839 7.73995 6.49153 8.46733 7.66744 8.71708L8.43842 7.0975C8.51119 6.94472 8.72937 6.94472 8.80214 7.0975L9.55617 8.68312H9.56103H9.5561L11.0909 11.9126L11.8449 13.4982C11.9883 13.8004 12.2146 14.0557 12.4974 14.2343C12.7803 14.4129 13.1081 14.5074 13.4426 14.5068C13.6003 14.5068 13.7578 14.485 13.913 14.4414C14.9774 14.1479 15.4817 12.9236 15.0064 11.9247Z" fill="#FF536A"/>
</g>
<defs>
<clipPath id="clip0_155_210">
<rect width="18" height="15.3984" fill="white"/>
</clipPath>
</defs>
</svg>
