<svg width="18" height="27" viewBox="0 0 18 27" fill="none" xmlns="http://www.w3.org/2000/svg">
<g clip-path="url(#clip0_155_229)">
<mask id="mask0_155_229" style="mask-type:luminance" maskUnits="userSpaceOnUse" x="0" y="0" width="18" height="27">
<path d="M17.7778 0H0V26.6667H17.7778V0Z" fill="white"/>
</mask>
<g mask="url(#mask0_155_229)">
<path d="M4.44443 26.6667C6.89777 26.6667 8.8889 24.6756 8.8889 22.2223V17.7778H4.44443C1.99111 17.7778 0 19.7689 0 22.2223C0 24.6756 1.99111 26.6667 4.44443 26.6667Z" fill="#0ACF83"/>
<path d="M0 13.3333C0 10.88 1.99111 8.88892 4.44443 8.88892H8.8889V17.7778H4.44443C1.99111 17.7778 0 15.7867 0 13.3333Z" fill="#A259FF"/>
<path d="M0 4.44443C0 1.99111 1.99111 0 4.44443 0H8.8889V8.8889H4.44443C1.99111 8.8889 0 6.89777 0 4.44443Z" fill="#F24E1E"/>
<path d="M8.8889 0H13.3334C15.7867 0 17.7778 1.99111 17.7778 4.44443C17.7778 6.89777 15.7867 8.8889 13.3334 8.8889H8.8889V0Z" fill="#FF7262"/>
<path d="M17.7778 13.3333C17.7778 15.7867 15.7867 17.7778 13.3334 17.7778C10.88 17.7778 8.8889 15.7867 8.8889 13.3333C8.8889 10.88 10.88 8.88892 13.3334 8.88892C15.7867 8.88892 17.7778 10.88 17.7778 13.3333Z" fill="#1ABCFE"/>
</g>
</g>
<defs>
<clipPath id="clip0_155_229">
<rect width="18" height="26.6667" fill="white"/>
</clipPath>
</defs>
</svg>
