<svg width="18" height="18" viewBox="0 0 18 18" fill="none" xmlns="http://www.w3.org/2000/svg">
<g clip-path="url(#clip0_155_239)">
<path d="M17.6604 8.1984L9.80157 0.338865C9.58416 0.121648 9.2894 -0.000366211 8.98207 -0.000366211C8.67475 -0.000366211 8.37999 0.121648 8.16258 0.338865L6.53063 1.97012L8.60063 4.04082C8.84475 3.95752 9.10738 3.94453 9.35853 4.00331C9.60969 4.06209 9.83927 4.19028 10.0211 4.37326C10.2029 4.55624 10.3296 4.78664 10.3868 5.03817C10.4439 5.2897 10.4292 5.55223 10.3444 5.79582L12.3391 7.79129C12.6373 7.68878 12.9616 7.69156 13.258 7.79916C13.5543 7.90676 13.8049 8.11267 13.9678 8.38259C14.1308 8.65251 14.1963 8.97012 14.1535 9.28249C14.1106 9.59486 13.9621 9.88312 13.7325 10.0992C13.5029 10.3153 13.2062 10.4462 12.8918 10.4701C12.5774 10.4939 12.2643 10.4093 12.0048 10.2304C11.7452 10.0514 11.5548 9.78888 11.4653 9.48656C11.3758 9.18423 11.3926 8.86037 11.513 8.56894L9.6525 6.70777V11.6043C9.93529 11.7442 10.1616 11.9767 10.2937 12.2632C10.4259 12.5496 10.4558 12.8727 10.3786 13.1786C10.3014 13.4845 10.1217 13.7546 9.86941 13.9441C9.61715 14.1335 9.30758 14.2308 8.99231 14.2196C8.67704 14.2085 8.37511 14.0896 8.13685 13.8828C7.89858 13.6761 7.73839 13.3939 7.68296 13.0833C7.62753 12.7728 7.68021 12.4526 7.83223 12.1762C7.98425 11.8998 8.22641 11.6838 8.51836 11.5643V6.6234C8.34992 6.55439 8.19681 6.45271 8.06787 6.32423C7.93892 6.19575 7.83669 6.04301 7.76707 5.87482C7.69746 5.70663 7.66183 5.52632 7.66226 5.34429C7.66268 5.16226 7.69914 4.98212 7.76954 4.81426L5.72766 2.77308L0.339613 8.16183C0.122182 8.37927 3.05176e-05 8.67418 3.05176e-05 8.98168C3.05176e-05 9.28918 0.122182 9.58408 0.339613 9.80152L8.19844 17.6603C8.41588 17.8778 8.71078 17.9999 9.01828 17.9999C9.32578 17.9999 9.62069 17.8778 9.83813 17.6603L17.6604 9.83808C17.8779 9.62053 18 9.3255 18 9.01789C18 8.71027 17.8779 8.41525 17.6604 8.19769" fill="#DE4C36"/>
</g>
<defs>
<clipPath id="clip0_155_239">
<rect width="18" height="18" fill="white"/>
</clipPath>
</defs>
</svg>
