<svg width="29" height="28" viewBox="0 0 29 28" fill="none" xmlns="http://www.w3.org/2000/svg">
<g clip-path="url(#clip0_153_61)">
<path d="M14.3359 0C22.2525 0 28.672 6.41839 28.672 14.3361C28.672 20.6702 24.5643 26.044 18.8681 27.9396C18.1516 28.0724 17.8885 27.6286 17.8885 27.2499C17.8885 26.9081 17.902 25.7788 17.908 24.581C21.8963 25.4481 22.7379 22.8894 22.7379 22.8894C23.3901 21.2324 24.3298 20.7917 24.3298 20.7917C25.6304 19.902 24.2316 19.9203 24.2316 19.9203C22.7921 20.0213 22.0341 21.3976 22.0341 21.3976C20.7554 23.5892 18.6803 22.9556 17.8622 22.5893C17.7335 21.6628 17.362 21.0302 16.952 20.6723C20.1363 20.3099 23.4836 19.0805 23.4836 13.5874C23.4836 12.0222 22.9236 10.7433 22.0065 9.7393C22.1554 9.37821 22.6461 7.92019 21.8677 5.94541C21.8677 5.94541 20.6638 5.56013 17.9241 7.41496C16.7806 7.09733 15.5542 6.93806 14.3359 6.93258C13.1175 6.93806 11.8901 7.09722 10.7445 7.41496C8.00822 5.56024 6.80601 5.94552 6.80601 5.94552C6.02571 7.92008 6.51661 9.37832 6.66545 9.7393C5.74627 10.7433 5.19008 12.0222 5.19008 13.5874C5.19008 19.0936 8.5438 20.306 11.7361 20.661C11.2219 21.1058 10.7638 21.9783 10.7638 23.3158C10.7638 25.2339 10.7803 26.7777 10.7803 27.2499C10.7803 27.6315 10.5223 28.0785 9.79563 27.9376C4.10256 26.04 -3.8147e-06 20.6681 -3.8147e-06 14.3362C-3.8147e-06 6.41838 6.4186 0 14.3359 0ZM23.3026 20.4221C23.3342 20.4933 23.4463 20.5147 23.5483 20.4658C23.6524 20.4191 23.7107 20.322 23.6771 20.2505C23.6462 20.1771 23.5339 20.1566 23.4302 20.2058C23.326 20.2526 23.2667 20.3506 23.3026 20.4221ZM22.5975 21.0513C22.6658 21.1147 22.7995 21.0852 22.8902 20.9851C22.984 20.8852 23.0015 20.7515 22.9322 20.6872C22.8617 20.6238 22.7321 20.6535 22.6381 20.7534C22.5443 20.8545 22.5261 20.9872 22.5975 21.0513ZM22.1136 21.8564C22.2015 21.9174 22.3451 21.8602 22.4339 21.7327C22.5217 21.6052 22.5217 21.4524 22.432 21.3911C22.343 21.3298 22.2015 21.3849 22.1116 21.5115C22.024 21.6411 22.024 21.794 22.1137 21.8565L22.1136 21.8564ZM21.2956 22.7888C21.3741 22.8754 21.5415 22.8521 21.664 22.7339C21.7894 22.6183 21.8242 22.4543 21.7454 22.3676C21.6658 22.2807 21.4975 22.3051 21.3741 22.4225C21.2498 22.5379 21.2117 22.7031 21.2956 22.7888ZM20.2381 23.1035C20.2728 23.2158 20.4341 23.2669 20.5963 23.2192C20.7585 23.17 20.8646 23.0385 20.8319 22.9251C20.7982 22.8119 20.6362 22.7588 20.4727 22.8099C20.3107 22.8588 20.2043 22.9892 20.2381 23.1035ZM19.0347 23.2371C19.0307 23.3552 19.1683 23.4532 19.3388 23.4555C19.5102 23.4593 19.6489 23.3636 19.6508 23.2472C19.6508 23.1279 19.5162 23.0308 19.3447 23.0279C19.1743 23.0245 19.0347 23.1195 19.0347 23.2371ZM17.8526 23.1917C17.8322 23.3071 17.9506 23.4256 18.1199 23.4572C18.2862 23.4875 18.4403 23.4163 18.4615 23.3019C18.4821 23.1837 18.3615 23.0652 18.1954 23.0346C18.0258 23.0051 17.8742 23.0745 17.8526 23.1917Z" fill="#3F5CD1"/>
</g>
<defs>
<clipPath id="clip0_153_61">
<rect width="28.672" height="28" fill="white" transform="matrix(-1 0 0 1 28.672 0)"/>
</clipPath>
</defs>
</svg>
