<svg width="27" height="27" viewBox="0 0 27 27" fill="none" xmlns="http://www.w3.org/2000/svg">
<g clip-path="url(#clip0_153_48)">
<path d="M23.005 23.0055H19.0045V16.7404C19.0045 15.2464 18.9778 13.3232 16.9238 13.3232C14.8401 13.3232 14.5213 14.951 14.5213 16.6316V23.0051H10.5209V10.1215H14.3613V11.8822H14.4151C14.7994 11.225 15.3548 10.6844 16.0221 10.3179C16.6894 9.95136 17.4436 9.77272 18.2044 9.80095C22.2591 9.80095 23.0067 12.468 23.0067 15.9377L23.005 23.0055ZM6.0068 8.36045C4.72462 8.36066 3.68501 7.32137 3.6848 6.03919C3.68459 4.75701 4.72378 3.7174 6.00596 3.71719C7.28814 3.71687 8.32775 4.75616 8.32796 6.03835C8.32807 6.65408 8.08359 7.24464 7.64829 7.68011C7.21299 8.11559 6.62253 8.36031 6.0068 8.36045ZM8.00712 23.0056H4.00237V10.1215H8.00702V23.0055L8.00712 23.0056ZM24.9994 0.00184301H1.99214C0.904752 -0.0103914 0.0130144 0.860675 -0.000274658 1.94806V25.0513C0.0125925 26.1392 0.904225 27.0111 1.99203 26.9997H24.9994C26.0895 27.0132 26.9846 26.1413 26.9997 25.0513V1.94626C26.9842 0.856773 26.089 -0.0141882 24.9994 5.00433e-05" fill="white"/>
</g>
<defs>
<clipPath id="clip0_153_48">
<rect width="27" height="27" fill="white"/>
</clipPath>
</defs>
</svg>
