<svg width="18" height="22" viewBox="0 0 18 22" fill="none" xmlns="http://www.w3.org/2000/svg">
<g clip-path="url(#clip0_155_226)">
<path d="M14.9043 18.9313V13.7683H17.1977V21.2258H0V13.7683H2.29338V18.9313H14.9043Z" fill="#BCBBBB"/>
<path d="M13.1851 14.9155L13.6435 13.1942L4.41377 11.3019L4.01262 13.1942L13.1851 14.9155ZM5.27445 8.71991L13.8728 12.7357L14.6751 11.0143L6.07677 6.99961L5.27445 8.71991ZM7.68139 4.47487L14.9043 10.5559L16.1088 9.12212L8.82861 3.04112L7.62408 4.47487H7.68139ZM12.3255 0.000610352L10.7771 1.14783L16.4527 8.77722L18 7.63L12.3255 0.000610352ZM4.01262 17.21H13.1851V15.4897H4.01262V17.21Z" fill="#F48024"/>
</g>
<defs>
<clipPath id="clip0_155_226">
<rect width="18" height="21.2264" fill="white"/>
</clipPath>
</defs>
</svg>
