<svg width="18" height="20" viewBox="0 0 18 20" fill="none" xmlns="http://www.w3.org/2000/svg">
<g clip-path="url(#clip0_155_170)">
<mask id="mask0_155_170" style="mask-type:luminance" maskUnits="userSpaceOnUse" x="0" y="0" width="18" height="20">
<path d="M0 0H18V19.0413H0V0Z" fill="white"/>
</mask>
<g mask="url(#mask0_155_170)">
<mask id="mask1_155_170" style="mask-type:luminance" maskUnits="userSpaceOnUse" x="0" y="0" width="18" height="20">
<path d="M0 0H18V19.0413H0V0Z" fill="white"/>
</mask>
<g mask="url(#mask1_155_170)">
<path d="M17.9256 3.19835L17.2562 13.314L11.0826 0L17.9256 3.19835ZM13.6116 16.2893L9 18.9669L4.31405 16.2893L5.20661 13.9835H12.719L13.6116 16.2893ZM9 5.05785L11.3802 11.0083H6.54545L9 5.05785ZM0.669421 13.314L0 3.19835L6.84297 0L0.669421 13.314Z" fill="url(#paint0_linear_155_170)"/>
<path d="M17.9256 3.19835L17.2562 13.314L11.0826 0L17.9256 3.19835ZM13.6116 16.2893L9 18.9669L4.31405 16.2893L5.20661 13.9835H12.719L13.6116 16.2893ZM9 5.05785L11.3802 11.0083H6.54545L9 5.05785ZM0.669421 13.314L0 3.19835L6.84297 0L0.669421 13.314Z" fill="url(#paint1_linear_155_170)"/>
</g>
</g>
</g>
<defs>
<linearGradient id="paint0_linear_155_170" x1="3.95702" y1="17.2488" x2="18.2231" y2="10.4653" gradientUnits="userSpaceOnUse">
<stop stop-color="#E40035"/>
<stop offset="0.2" stop-color="#F60A48"/>
<stop offset="0.4" stop-color="#F20755"/>
<stop offset="0.5" stop-color="#DC087D"/>
<stop offset="0.7" stop-color="#9717E7"/>
<stop offset="1" stop-color="#6C00F5"/>
</linearGradient>
<linearGradient id="paint1_linear_155_170" x1="3.30992" y1="2.28347" x2="12.6446" y2="12.9421" gradientUnits="userSpaceOnUse">
<stop stop-color="#FF31D9"/>
<stop offset="1" stop-color="#FF5BE1" stop-opacity="0"/>
</linearGradient>
<clipPath id="clip0_155_170">
<rect width="18" height="19.0413" fill="white"/>
</clipPath>
</defs>
</svg>
