<svg width="18" height="12" viewBox="0 0 18 12" fill="none" xmlns="http://www.w3.org/2000/svg">
<path d="M10.0981 11.8167H16.7895C17.0021 11.8167 17.2108 11.7625 17.3949 11.6594C17.5778 11.5575 17.7306 11.4092 17.838 11.2295C17.9439 11.0519 17.9999 10.849 18 10.6422C18 10.4361 17.9438 10.2337 17.8374 10.0551L13.3438 2.50532C13.2364 2.32566 13.0836 2.17742 12.9007 2.0755C12.7157 1.97217 12.5074 1.91799 12.2955 1.91814C12.0829 1.91814 11.8742 1.97242 11.6902 2.0755C11.5073 2.17743 11.3546 2.32567 11.2472 2.50532L10.0981 4.43702L7.85166 0.659549C7.74416 0.4799 7.59129 0.331691 7.40841 0.229799C7.22336 0.126506 7.01494 0.0723539 6.80302 0.0725101C6.59053 0.0725101 6.3817 0.126791 6.19762 0.229799C6.01476 0.331701 5.86192 0.479909 5.75445 0.659549L0.162422 10.0551C0.0563175 10.2326 0.000194894 10.4355 0 10.6422C0 10.8484 0.0557578 11.051 0.162 11.2295C0.269406 11.4092 0.42223 11.5575 0.605109 11.6594C0.790141 11.7628 0.998575 11.8169 1.2105 11.8167H5.41076C7.07498 11.8167 8.30222 11.1077 9.14674 9.72438L11.197 6.28026L12.2951 4.43702L15.591 9.97356H11.197L10.0981 11.8167ZM5.3422 9.97174L2.41102 9.97103L6.80498 2.58942L8.9974 6.28026L7.52948 8.7471C6.96867 9.64464 6.33157 9.97167 5.34227 9.97167L5.3422 9.97174Z" fill="#00DC82"/>
</svg>
