<svg width="18" height="17" viewBox="0 0 18 17" fill="none" xmlns="http://www.w3.org/2000/svg">
<g clip-path="url(#clip0_155_110)">
<path d="M14.7996 5.232C14.608 5.16627 14.4148 5.10539 14.2202 5.0494C14.2529 4.9158 14.283 4.78383 14.3097 4.65417C14.7483 2.52504 14.4616 0.809763 13.4822 0.245013C12.5432 -0.296393 11.0075 0.268146 9.45654 1.61794C9.30369 1.7512 9.15422 1.88831 9.0083 2.02912C8.91061 1.93548 8.81119 1.84366 8.7101 1.75371C7.08462 0.310474 5.45534 -0.297799 4.47701 0.268568C3.53883 0.811662 3.26102 2.42414 3.6559 4.44197C3.69518 4.64181 3.73954 4.84063 3.78893 5.03822C3.5583 5.10375 3.33577 5.1735 3.12279 5.24775C1.21704 5.9122 0 6.95346 0 8.03353C0 9.14904 1.30655 10.2679 3.29147 10.9464C3.45239 11.0011 3.61465 11.0519 3.7781 11.0986C3.72502 11.3114 3.67789 11.5257 3.63677 11.7411C3.26032 13.7239 3.5543 15.2983 4.48995 15.8379C5.45632 16.3952 7.07829 15.8225 8.65758 14.4419C8.78564 14.3296 8.91088 14.2142 9.03319 14.0957C9.19122 14.2482 9.35347 14.3963 9.51975 14.5397C11.0496 15.8561 12.5605 16.3876 13.4952 15.8465C14.4607 15.2876 14.7745 13.5963 14.3671 11.5386C14.335 11.3774 14.299 11.217 14.2592 11.0575C14.3731 11.0238 14.4849 10.989 14.5939 10.9529C16.6574 10.2693 18 9.16394 18 8.03353C18 6.94952 16.7437 5.90123 14.7996 5.232ZM14.352 10.2231C14.2536 10.2556 14.1526 10.287 14.0497 10.3176C13.8219 9.59644 13.5145 8.82961 13.1382 8.03726C13.4973 7.26382 13.7929 6.50676 14.0143 5.79028C14.1984 5.84358 14.3771 5.89976 14.5493 5.95903C16.215 6.5325 17.2311 7.38026 17.2311 8.03353C17.2311 8.72934 16.1338 9.63265 14.352 10.2231ZM13.6128 11.688C13.7929 12.5978 13.8186 13.4205 13.6993 14.0636C13.5921 14.6415 13.3765 15.0267 13.1099 15.1811C12.5427 15.5094 11.3296 15.0826 10.0213 13.9568C9.86663 13.8234 9.7157 13.6858 9.56869 13.5441C10.0759 12.9894 10.5828 12.3445 11.0775 11.6283C11.9477 11.5511 12.7698 11.4248 13.5153 11.2525C13.552 11.4007 13.5847 11.5459 13.6128 11.688ZM6.13659 15.1243C5.58239 15.32 5.14097 15.3256 4.87413 15.1718C4.30636 14.8443 4.07032 13.5802 4.39228 11.8845C4.43055 11.6842 4.47437 11.4849 4.52369 11.287C5.26099 11.4501 6.07711 11.5674 6.94934 11.6381C7.44743 12.3389 7.96894 12.983 8.49452 13.5471C8.38283 13.6552 8.26849 13.7605 8.15161 13.8629C7.4532 14.4734 6.75338 14.9065 6.13659 15.1243ZM3.54023 10.2188C2.66252 9.91875 1.93767 9.52887 1.44084 9.1034C0.994359 8.72112 0.769008 8.3415 0.769008 8.03353C0.769008 7.37808 1.74614 6.54206 3.37591 5.97386C3.5737 5.90496 3.7807 5.83992 3.99551 5.77889C4.22079 6.51154 4.51624 7.2776 4.8728 8.05223C4.5116 8.83833 4.21193 9.61662 3.98447 10.3579C3.83527 10.3152 3.68715 10.2688 3.54023 10.2188ZM4.41056 4.29424C4.07229 2.56547 4.29694 1.26138 4.86232 0.934076C5.46448 0.585466 6.79605 1.08251 8.19956 2.32872C8.29108 2.41017 8.38112 2.49327 8.46963 2.57798C7.94665 3.13957 7.42992 3.77892 6.93626 4.47558C6.0897 4.55404 5.27934 4.68004 4.53431 4.84886C4.48841 4.66508 4.44715 4.4801 4.41056 4.29424ZM12.175 6.21152C11.999 5.90755 11.8165 5.60741 11.6276 5.31131C12.2019 5.38394 12.7522 5.48034 13.2689 5.59818C13.1138 6.09543 12.9204 6.61526 12.6928 7.14822C12.5264 6.83257 12.3538 6.52028 12.175 6.21152ZM9.00865 3.12754C9.36331 3.5118 9.71852 3.94078 10.0679 4.40625C9.35916 4.37278 8.64922 4.37263 7.94046 4.40583C8.2902 3.94465 8.64844 3.51623 9.00865 3.12754ZM5.82202 6.21679C5.64541 6.52306 5.47599 6.83341 5.31387 7.14759C5.08999 6.61652 4.89839 6.09431 4.74195 5.59003C5.25551 5.47514 5.80317 5.3812 6.37383 5.3099C6.18282 5.60782 5.99883 5.91024 5.82202 6.21679ZM6.39021 10.8119C5.80064 10.746 5.24475 10.657 4.73133 10.5452C4.89023 10.0319 5.08605 9.49856 5.31478 8.9561C5.47754 9.27051 5.64768 9.58105 5.82504 9.88746C6.00743 10.2025 6.19629 10.511 6.39021 10.8119ZM9.02988 12.9937C8.66538 12.6005 8.30187 12.1654 7.94686 11.6976C8.29153 11.7111 8.64288 11.718 9 11.718C9.36689 11.718 9.72956 11.7097 10.0865 11.6939C9.73603 12.1702 9.38215 12.6058 9.02988 12.9937ZM12.7001 8.9284C12.9407 9.47683 13.1434 10.0073 13.3045 10.5118C12.7826 10.6309 12.2191 10.7268 11.6254 10.7981C11.8156 10.4965 11.9999 10.1911 12.178 9.88219C12.3591 9.56817 12.5331 9.25016 12.7001 8.9284ZM11.5119 9.498C11.2393 9.97165 10.9513 10.4363 10.6484 10.8912C10.0998 10.9301 9.54998 10.9494 9 10.9491C8.43982 10.9491 7.89497 10.9317 7.3703 10.8976C7.05953 10.4438 6.76605 9.97829 6.49048 9.50222C6.2162 9.02867 5.96008 8.54487 5.72252 8.05188C5.95947 7.55877 6.21489 7.07475 6.48823 6.60084L6.48816 6.60091C6.76139 6.12688 7.05253 5.6634 7.36095 5.21147C7.89623 5.17097 8.44516 5.14987 8.99993 5.14987C9.55723 5.14987 10.1069 5.17118 10.6421 5.21196C10.9474 5.66321 11.2367 6.1251 11.5094 6.59676C11.7836 7.06963 12.0424 7.55129 12.2854 8.04098C12.0449 8.53568 11.7869 9.02166 11.5119 9.498ZM13.0982 0.911154C13.7009 1.25878 13.9353 2.6606 13.5566 4.49892C13.5324 4.6162 13.5053 4.73566 13.4757 4.85681C12.7289 4.6844 11.918 4.55622 11.0689 4.47656C10.5744 3.77224 10.0619 3.1319 9.54738 2.57756C9.68222 2.44759 9.82026 2.32099 9.96138 2.19787C11.2903 1.04144 12.5323 0.584833 13.0982 0.911154ZM9 6.42618C9.8877 6.42618 10.6073 7.14583 10.6073 8.03353C10.6073 8.92122 9.8877 9.64087 9 9.64087C8.1123 9.64087 7.39266 8.92122 7.39266 8.03353C7.39266 7.14583 8.1123 6.42618 9 6.42618Z" fill="#00D8FF"/>
</g>
<defs>
<clipPath id="clip0_155_110">
<rect width="18" height="16.0312" fill="white" transform="translate(0 0.0412598)"/>
</clipPath>
</defs>
</svg>
