<svg width="19" height="15" viewBox="0 0 19 15" fill="none" xmlns="http://www.w3.org/2000/svg">
<path d="M15.5157 8.38775C14.8829 8.38775 14.3204 8.52838 13.8634 8.73932C13.6876 8.42291 13.547 8.14166 13.5118 7.89557C13.4767 7.64947 13.4415 7.50885 13.4767 7.19244C13.5118 6.87604 13.6876 6.45416 13.6876 6.419C13.6876 6.419 13.6525 6.24322 13.3009 6.24322C12.9142 6.24322 12.5978 6.31354 12.5626 6.419L12.422 6.94635C12.3517 7.26275 11.7189 8.45807 11.3321 9.05572C11.1915 8.80963 11.0861 8.59869 11.0861 8.45807C11.0509 8.17682 11.0157 8.03619 11.0509 7.71979C11.0861 7.40338 11.2618 7.01666 11.2618 6.9815C11.2618 6.94635 11.2267 6.77057 10.8751 6.77057C10.4884 6.77057 10.172 6.84088 10.1368 6.94635L9.99621 7.47369L8.8009 10.1456L8.51965 10.7784C8.44933 10.919 8.51965 10.7784 8.51965 10.8135L8.41418 10.9893L8.27355 11.1651C8.27355 11.1651 8.2384 10.919 8.30871 10.6026C8.41418 9.93463 8.73058 8.87994 8.73058 8.80963C8.73058 8.80963 8.8009 8.63385 8.51965 8.52838C8.27355 8.42291 8.20324 8.59869 8.16808 8.59869L8.13293 8.63385C8.13293 8.63385 8.41418 7.43854 7.57043 7.43854C7.07824 7.43854 6.33996 8.03619 5.9884 8.52838L4.79308 9.19635L4.19543 9.51275L4.16027 9.4776C3.14074 8.38775 1.27746 7.64947 1.38293 6.20807C1.38293 5.68072 1.59386 4.30963 4.93371 2.62213C7.71105 1.25104 9.89074 1.63775 10.2775 2.4815C10.84 3.67682 9.1173 5.89166 6.23449 6.20807C5.14465 6.31354 4.58215 5.89166 4.44152 5.75104C4.3009 5.57525 4.26574 5.57525 4.19543 5.61041C4.12511 5.64557 4.16027 5.78619 4.19543 5.89166C4.3009 6.1026 4.65246 6.48932 5.25011 6.70025C5.77746 6.87604 7.04308 6.9815 8.58996 6.38385C10.3126 5.71588 11.6837 3.8526 11.297 2.27057C10.8751 0.688536 8.2384 0.161192 5.77746 1.0401C4.26574 1.56744 2.68371 2.41119 1.52355 3.50104C0.152459 4.76666 -0.058479 5.89166 0.0118335 6.34869C0.363396 8.00104 2.6134 9.09088 3.52746 9.86432L3.42199 9.93463C2.96496 10.1807 1.20715 11.0948 0.785271 12.044C0.293083 13.1338 0.855584 13.9073 1.2423 14.0128C2.40246 14.3643 3.63293 13.7667 4.26574 12.8174C4.89855 11.8331 4.82824 10.5674 4.54699 10.0049L4.51183 9.96978L4.89855 9.75885L5.53136 9.40728C5.4259 9.72369 5.35558 10.0753 5.32043 10.6026C5.25011 11.2003 5.53136 12.0088 5.84777 12.3253C5.9884 12.4659 6.16418 12.4659 6.26965 12.4659C6.65636 12.4659 6.83215 12.1495 7.04308 11.7628L7.50011 10.7784C7.50011 10.7784 7.21886 12.2198 7.95715 12.2198C8.20324 12.2198 8.48449 11.9034 8.58996 11.7276L8.62511 11.6924L8.66027 11.6221L9.3634 10.3213L10.2423 8.31744L10.4181 9.02057C10.4884 9.30182 10.6642 9.58307 10.7696 9.86432L10.629 10.1104L10.3478 10.462C9.99621 10.8838 9.53918 11.376 9.50402 11.5167C9.43371 11.6924 9.43371 11.7979 9.57433 11.9034C9.6798 11.9737 9.85558 11.9737 10.0314 11.9737L10.6642 11.8331L11.2618 11.5167C11.6134 11.2706 11.8243 10.8838 11.7892 10.3917C11.7892 10.1456 11.6837 9.86432 11.5782 9.61822L11.6837 9.4776C12.2462 8.669 12.6681 7.75494 12.6681 7.75494L12.8439 8.49322L13.1603 9.19635C12.7407 9.52995 12.4138 9.96575 12.2111 10.462C12.0001 11.0596 12.1407 11.3057 12.4571 11.376C12.5978 11.4112 12.8087 11.3409 12.9493 11.2706C13.1251 11.2354 13.3361 11.1299 13.547 10.9893C13.8986 10.7081 14.2501 10.3565 14.215 9.86432C14.215 9.65338 14.1446 9.40728 14.0743 9.19635C14.4962 9.02057 15.0939 8.9151 15.797 9.02057C17.379 9.19635 17.6954 10.1807 17.6251 10.5674C17.5548 10.9893 17.2384 11.2003 17.1329 11.2706L16.9923 11.4112C17.0275 11.4815 17.0626 11.4815 17.1681 11.4815C17.2736 11.4463 17.9767 11.1299 18.0118 10.3917C18.047 9.40728 17.1329 8.3526 15.5157 8.38775ZM3.42199 12.4307C2.9298 12.9932 2.19152 13.2393 1.87511 13.0284C1.55871 12.8526 1.66418 12.0088 2.33215 11.4112C2.71886 11.0596 3.21105 10.7081 3.52746 10.4971L3.84386 10.3213L3.87902 10.2862L3.98449 10.251C4.19543 11.0948 3.98449 11.8331 3.42199 12.4307ZM7.21886 9.86432C7.04308 10.3213 6.65636 11.4463 6.44543 11.376C6.23449 11.3409 6.12902 10.462 6.37511 9.61822C6.51574 9.19635 6.83215 8.70416 7.00793 8.49322C7.28918 8.17682 7.60558 8.07135 7.6759 8.21197C7.78136 8.38775 7.32433 9.58307 7.21886 9.86432ZM10.3478 11.376L10.172 11.4112V11.3409L10.7345 10.7432L11.0509 10.3565V10.3917C11.0509 10.8838 10.5587 11.2354 10.3478 11.376ZM12.7384 10.8135C12.6681 10.7784 12.7032 10.6378 12.879 10.251C12.9493 10.0753 13.1251 9.794 13.4064 9.54791L13.4767 9.86432C13.4767 10.4971 13.0196 10.7081 12.7384 10.8135Z" fill="#CF649A"/>
</svg>
