<svg width="18" height="12" viewBox="0 0 18 12" fill="none" xmlns="http://www.w3.org/2000/svg">
<path d="M9 0.816895C6.60002 0.816895 5.09998 2.01692 4.5 4.41689C5.4 3.21687 6.44998 2.76687 7.65 3.06689C8.33463 3.23804 8.82401 3.73479 9.3657 4.28457C10.2481 5.18028 11.2693 6.21689 13.5 6.21689C15.9 6.21689 17.4 5.01687 18 2.61689C17.1 3.81692 16.05 4.26692 14.85 3.96689C14.1654 3.79575 13.676 3.299 13.1343 2.74922C12.2519 1.85351 11.2307 0.816895 9 0.816895ZM4.5 6.21689C2.10002 6.21689 0.599977 7.41692 0 9.81689C0.9 8.61687 1.94998 8.16687 3.15 8.46689C3.83463 8.63804 4.32401 9.13479 4.86569 9.68457C5.74812 10.5803 6.76934 11.6169 9 11.6169C11.4 11.6169 12.9 10.4169 13.5 8.01689C12.6 9.21692 11.55 9.66692 10.35 9.36689C9.66537 9.19575 9.17599 8.699 8.63431 8.14922C7.75188 7.25351 6.73066 6.21689 4.5 6.21689Z" fill="url(#paint0_linear_155_112)"/>
<defs>
<linearGradient id="paint0_linear_155_112" x1="-50.004" y1="346.417" x2="1504.59" y2="1242.77" gradientUnits="userSpaceOnUse">
<stop stop-color="#2298BD"/>
<stop offset="1" stop-color="#0ED7B5"/>
</linearGradient>
</defs>
</svg>
