<svg width="18" height="19" viewBox="0 0 18 19" fill="none" xmlns="http://www.w3.org/2000/svg">
<g clip-path="url(#clip0_155_196)">
<path d="M1.40625 0.114746H16.5938C17.3704 0.114746 18 0.744324 18 1.521V16.7085C18 17.4852 17.3704 18.1147 16.5938 18.1147H1.40625C0.629578 18.1147 0 17.4852 0 16.7085V1.521C0 0.744324 0.629578 0.114746 1.40625 0.114746Z" fill="#3178C6"/>
<path d="M10.5833 14.2106V16.1527C10.8991 16.3145 11.2727 16.4359 11.7039 16.5168C12.1352 16.5978 12.5897 16.6382 13.0675 16.6382C13.5331 16.6382 13.9755 16.5937 14.3946 16.5047C14.8136 16.4156 15.1812 16.269 15.4969 16.0647C15.8128 15.8604 16.0628 15.5933 16.2471 15.2636C16.4313 14.9339 16.5234 14.5263 16.5234 14.0408C16.5234 13.6888 16.4708 13.3803 16.3655 13.1152C16.2614 12.852 16.1066 12.6118 15.91 12.4083C15.7116 12.2019 15.4737 12.0168 15.1964 11.8529C14.919 11.6891 14.6062 11.5343 14.2579 11.3887C14.0028 11.2835 13.7741 11.1814 13.5716 11.0822C13.3691 10.9831 13.197 10.882 13.0553 10.7788C12.9136 10.6756 12.8043 10.5663 12.7273 10.451C12.6504 10.3357 12.612 10.2053 12.612 10.0596C12.612 9.92608 12.6463 9.80578 12.7152 9.69855C12.784 9.59132 12.8813 9.49929 13.0068 9.42243C13.1323 9.34551 13.2861 9.28589 13.4684 9.24335C13.6505 9.20088 13.853 9.17964 14.0757 9.17964C14.2377 9.17964 14.4088 9.19181 14.5889 9.21607C14.7691 9.24032 14.9503 9.27773 15.1326 9.32836C15.3143 9.37872 15.4919 9.44262 15.664 9.51954C15.8309 9.59349 15.9905 9.68287 16.1408 9.78651V7.97196C15.8452 7.85868 15.5223 7.77473 15.172 7.7201C14.8218 7.66546 14.4199 7.63818 13.9664 7.63818C13.5048 7.63818 13.0675 7.68775 12.6545 7.78689C12.2415 7.88596 11.878 8.04072 11.5642 8.2511C11.2504 8.46154 11.0024 8.72957 10.8202 9.05526C10.638 9.38095 10.5469 9.77034 10.5469 10.2235C10.5469 10.802 10.7139 11.2956 11.048 11.7043C11.382 12.1129 11.8891 12.4588 12.5694 12.742C12.8205 12.8443 13.0696 12.9515 13.3165 13.0637C13.5473 13.1689 13.7467 13.2781 13.9148 13.3914C14.0828 13.5046 14.2154 13.628 14.3126 13.7616C14.4098 13.8951 14.4584 14.0468 14.4584 14.2168C14.4592 14.3391 14.4277 14.4594 14.3672 14.5657C14.3066 14.6729 14.2144 14.766 14.0909 14.8449C13.9674 14.9238 13.8135 14.9854 13.6293 15.0299C13.4451 15.0744 13.2294 15.0967 12.9824 15.0967C12.5613 15.0967 12.1443 15.0229 11.7313 14.8752C11.3182 14.7275 10.9356 14.506 10.5833 14.2106ZM7.34639 9.37786H9.84375V7.77881H2.88281V9.37786H5.36801V16.4976H7.34639V9.37786Z" fill="white"/>
</g>
<defs>
<clipPath id="clip0_155_196">
<rect width="18" height="18" fill="white" transform="translate(0 0.114746)"/>
</clipPath>
</defs>
</svg>
